<mxfile host="app.diagrams.net" modified="2024-02-28T10:51:13.470Z" agent="Mozilla/5.0 (Windows NT 10.0; Win64; x64) AppleWebKit/537.36 (KHTML, like Gecko) Chrome/121.0.0.0 Safari/537.36" etag="g5z58iDtbErlFjC9HGxM" version="23.1.7" type="device">
  <diagram name="Страница — 1" id="UZdZvPJBFA_r2O2dScap">
    <mxGraphModel dx="1744" dy="931" grid="1" gridSize="10" guides="1" tooltips="1" connect="1" arrows="1" fold="1" page="1" pageScale="1" pageWidth="827" pageHeight="1169" math="0" shadow="0">
      <root>
        <mxCell id="0" />
        <mxCell id="1" parent="0" />
        <mxCell id="O6baOiQE3LoMGlpV9MQK-2" value="&lt;p style=&quot;margin:0px;margin-top:4px;text-align:center;&quot;&gt;&lt;i&gt;&amp;lt;&amp;lt;Interface&amp;gt;&amp;gt;&lt;/i&gt;&lt;br&gt;ICharacterBuilder&lt;br&gt;&lt;/p&gt;&lt;hr size=&quot;1&quot;&gt;&lt;p style=&quot;margin:0px;margin-left:4px;&quot;&gt;&lt;br&gt;&lt;/p&gt;&lt;hr size=&quot;1&quot;&gt;&lt;p style=&quot;margin:0px;margin-left:4px;&quot;&gt;SetHeight(int height): ICharacterBuilder&lt;/p&gt;&lt;p style=&quot;margin:0px;margin-left:4px;&quot;&gt;SetBuild(string build): ICharacterBuilder&lt;/p&gt;&lt;p style=&quot;margin:0px;margin-left:4px;&quot;&gt;SetHairColor(string hairColor): ICharacterBuilder&lt;br&gt;SetEyeColor(string eyeColor): ICharacterBuilder&lt;br&gt;&lt;/p&gt;&lt;p style=&quot;margin:0px;margin-left:4px;&quot;&gt;SetClothing(string clothing): ICharacterBuilder&lt;br&gt;&lt;/p&gt;&lt;p style=&quot;margin:0px;margin-left:4px;&quot;&gt;SetInventory(List&amp;lt;string&amp;gt; inventory) : ICharactedBuilder&lt;/p&gt;&lt;p style=&quot;margin:0px;margin-left:4px;&quot;&gt;Build(): Character&lt;br&gt;&lt;/p&gt;" style="verticalAlign=top;align=left;overflow=fill;html=1;whiteSpace=wrap;" vertex="1" parent="1">
          <mxGeometry x="80" y="181" width="310" height="179" as="geometry" />
        </mxCell>
        <mxCell id="O6baOiQE3LoMGlpV9MQK-3" value="Character" style="swimlane;fontStyle=1;align=center;verticalAlign=top;childLayout=stackLayout;horizontal=1;startSize=26;horizontalStack=0;resizeParent=1;resizeParentMax=0;resizeLast=0;collapsible=1;marginBottom=0;whiteSpace=wrap;html=1;" vertex="1" parent="1">
          <mxGeometry x="240" y="410" width="160" height="164" as="geometry" />
        </mxCell>
        <mxCell id="O6baOiQE3LoMGlpV9MQK-4" value="Height: int&lt;br&gt;Build: string&lt;div&gt;HairColor: string&lt;br&gt;&lt;/div&gt;&lt;div&gt;EyeColor: string&lt;br&gt;&lt;/div&gt;&lt;div&gt;Clothing: string&lt;br&gt;&lt;/div&gt;&lt;div&gt;Inventory: List&amp;lt;string&amp;gt;&lt;br&gt;&lt;/div&gt;" style="text;strokeColor=none;fillColor=none;align=left;verticalAlign=top;spacingLeft=4;spacingRight=4;overflow=hidden;rotatable=0;points=[[0,0.5],[1,0.5]];portConstraint=eastwest;whiteSpace=wrap;html=1;" vertex="1" parent="O6baOiQE3LoMGlpV9MQK-3">
          <mxGeometry y="26" width="160" height="104" as="geometry" />
        </mxCell>
        <mxCell id="O6baOiQE3LoMGlpV9MQK-5" value="" style="line;strokeWidth=1;fillColor=none;align=left;verticalAlign=middle;spacingTop=-1;spacingLeft=3;spacingRight=3;rotatable=0;labelPosition=right;points=[];portConstraint=eastwest;strokeColor=inherit;" vertex="1" parent="O6baOiQE3LoMGlpV9MQK-3">
          <mxGeometry y="130" width="160" height="8" as="geometry" />
        </mxCell>
        <mxCell id="O6baOiQE3LoMGlpV9MQK-6" value="DisplayInfo(): void" style="text;strokeColor=none;fillColor=none;align=left;verticalAlign=top;spacingLeft=4;spacingRight=4;overflow=hidden;rotatable=0;points=[[0,0.5],[1,0.5]];portConstraint=eastwest;whiteSpace=wrap;html=1;" vertex="1" parent="O6baOiQE3LoMGlpV9MQK-3">
          <mxGeometry y="138" width="160" height="26" as="geometry" />
        </mxCell>
        <mxCell id="O6baOiQE3LoMGlpV9MQK-7" value="CharacterDirector" style="swimlane;fontStyle=1;align=center;verticalAlign=top;childLayout=stackLayout;horizontal=1;startSize=26;horizontalStack=0;resizeParent=1;resizeParentMax=0;resizeLast=0;collapsible=1;marginBottom=0;whiteSpace=wrap;html=1;" vertex="1" parent="1">
          <mxGeometry x="210" y="20" width="180" height="86" as="geometry" />
        </mxCell>
        <mxCell id="O6baOiQE3LoMGlpV9MQK-8" value="_builder: ICharacterBuilder" style="text;strokeColor=none;fillColor=none;align=left;verticalAlign=top;spacingLeft=4;spacingRight=4;overflow=hidden;rotatable=0;points=[[0,0.5],[1,0.5]];portConstraint=eastwest;whiteSpace=wrap;html=1;" vertex="1" parent="O6baOiQE3LoMGlpV9MQK-7">
          <mxGeometry y="26" width="180" height="26" as="geometry" />
        </mxCell>
        <mxCell id="O6baOiQE3LoMGlpV9MQK-9" value="" style="line;strokeWidth=1;fillColor=none;align=left;verticalAlign=middle;spacingTop=-1;spacingLeft=3;spacingRight=3;rotatable=0;labelPosition=right;points=[];portConstraint=eastwest;strokeColor=inherit;" vertex="1" parent="O6baOiQE3LoMGlpV9MQK-7">
          <mxGeometry y="52" width="180" height="8" as="geometry" />
        </mxCell>
        <mxCell id="O6baOiQE3LoMGlpV9MQK-10" value="ConstructCharacter(): void" style="text;strokeColor=none;fillColor=none;align=left;verticalAlign=top;spacingLeft=4;spacingRight=4;overflow=hidden;rotatable=0;points=[[0,0.5],[1,0.5]];portConstraint=eastwest;whiteSpace=wrap;html=1;" vertex="1" parent="O6baOiQE3LoMGlpV9MQK-7">
          <mxGeometry y="60" width="180" height="26" as="geometry" />
        </mxCell>
        <mxCell id="O6baOiQE3LoMGlpV9MQK-11" value="HeroBuilder" style="swimlane;fontStyle=1;align=center;verticalAlign=top;childLayout=stackLayout;horizontal=1;startSize=26;horizontalStack=0;resizeParent=1;resizeParentMax=0;resizeLast=0;collapsible=1;marginBottom=0;whiteSpace=wrap;html=1;" vertex="1" parent="1">
          <mxGeometry x="440" y="30" width="280" height="190" as="geometry" />
        </mxCell>
        <mxCell id="O6baOiQE3LoMGlpV9MQK-12" value="_character: Character" style="text;strokeColor=none;fillColor=none;align=left;verticalAlign=top;spacingLeft=4;spacingRight=4;overflow=hidden;rotatable=0;points=[[0,0.5],[1,0.5]];portConstraint=eastwest;whiteSpace=wrap;html=1;" vertex="1" parent="O6baOiQE3LoMGlpV9MQK-11">
          <mxGeometry y="26" width="280" height="26" as="geometry" />
        </mxCell>
        <mxCell id="O6baOiQE3LoMGlpV9MQK-13" value="" style="line;strokeWidth=1;fillColor=none;align=left;verticalAlign=middle;spacingTop=-1;spacingLeft=3;spacingRight=3;rotatable=0;labelPosition=right;points=[];portConstraint=eastwest;strokeColor=inherit;" vertex="1" parent="O6baOiQE3LoMGlpV9MQK-11">
          <mxGeometry y="52" width="280" height="8" as="geometry" />
        </mxCell>
        <mxCell id="O6baOiQE3LoMGlpV9MQK-14" value="SetHeight(int height): ICharacterBuilder&lt;br&gt;SetBuild(string build): ICharacterBuilder&lt;br&gt;SetHairColor(string hairColor): ICharacterBuilder&lt;br&gt;SetEyeColor(string eyeColor): ICharacterBuilder&lt;br&gt;SetClothing(string clothing): ICharacterBuilder&lt;br&gt;SetInventory(List&amp;lt;string&amp;gt; inventory): ICharacterBuilder&lt;br&gt;Build(): Character" style="text;strokeColor=none;fillColor=none;align=left;verticalAlign=top;spacingLeft=4;spacingRight=4;overflow=hidden;rotatable=0;points=[[0,0.5],[1,0.5]];portConstraint=eastwest;whiteSpace=wrap;html=1;" vertex="1" parent="O6baOiQE3LoMGlpV9MQK-11">
          <mxGeometry y="60" width="280" height="130" as="geometry" />
        </mxCell>
        <mxCell id="O6baOiQE3LoMGlpV9MQK-16" value="" style="endArrow=block;dashed=1;endFill=0;endSize=12;html=1;rounded=0;entryX=0.853;entryY=0.011;entryDx=0;entryDy=0;entryPerimeter=0;" edge="1" parent="1" target="O6baOiQE3LoMGlpV9MQK-2">
          <mxGeometry width="160" relative="1" as="geometry">
            <mxPoint x="441.94" y="106" as="sourcePoint" />
            <mxPoint x="384.99999999999994" y="86.34400000000005" as="targetPoint" />
          </mxGeometry>
        </mxCell>
        <mxCell id="O6baOiQE3LoMGlpV9MQK-17" value="EnemyBuilder" style="swimlane;fontStyle=1;align=center;verticalAlign=top;childLayout=stackLayout;horizontal=1;startSize=26;horizontalStack=0;resizeParent=1;resizeParentMax=0;resizeLast=0;collapsible=1;marginBottom=0;whiteSpace=wrap;html=1;" vertex="1" parent="1">
          <mxGeometry x="440" y="260" width="280" height="190" as="geometry" />
        </mxCell>
        <mxCell id="O6baOiQE3LoMGlpV9MQK-18" value="_character: Character" style="text;strokeColor=none;fillColor=none;align=left;verticalAlign=top;spacingLeft=4;spacingRight=4;overflow=hidden;rotatable=0;points=[[0,0.5],[1,0.5]];portConstraint=eastwest;whiteSpace=wrap;html=1;" vertex="1" parent="O6baOiQE3LoMGlpV9MQK-17">
          <mxGeometry y="26" width="280" height="26" as="geometry" />
        </mxCell>
        <mxCell id="O6baOiQE3LoMGlpV9MQK-19" value="" style="line;strokeWidth=1;fillColor=none;align=left;verticalAlign=middle;spacingTop=-1;spacingLeft=3;spacingRight=3;rotatable=0;labelPosition=right;points=[];portConstraint=eastwest;strokeColor=inherit;" vertex="1" parent="O6baOiQE3LoMGlpV9MQK-17">
          <mxGeometry y="52" width="280" height="8" as="geometry" />
        </mxCell>
        <mxCell id="O6baOiQE3LoMGlpV9MQK-20" value="SetHeight(int height): ICharacterBuilder&lt;br&gt;SetBuild(string build): ICharacterBuilder&lt;br&gt;SetHairColor(string hairColor): ICharacterBuilder&lt;br&gt;SetEyeColor(string eyeColor): ICharacterBuilder&lt;br&gt;SetClothing(string clothing): ICharacterBuilder&lt;br&gt;SetInventory(List&amp;lt;string&amp;gt; inventory): ICharacterBuilder&lt;br&gt;Build(): Character" style="text;strokeColor=none;fillColor=none;align=left;verticalAlign=top;spacingLeft=4;spacingRight=4;overflow=hidden;rotatable=0;points=[[0,0.5],[1,0.5]];portConstraint=eastwest;whiteSpace=wrap;html=1;" vertex="1" parent="O6baOiQE3LoMGlpV9MQK-17">
          <mxGeometry y="60" width="280" height="130" as="geometry" />
        </mxCell>
        <mxCell id="O6baOiQE3LoMGlpV9MQK-21" value="" style="endArrow=block;dashed=1;endFill=0;endSize=12;html=1;rounded=0;" edge="1" parent="1">
          <mxGeometry width="160" relative="1" as="geometry">
            <mxPoint x="440" y="300" as="sourcePoint" />
            <mxPoint x="382.06" y="302.85700197238657" as="targetPoint" />
          </mxGeometry>
        </mxCell>
        <mxCell id="O6baOiQE3LoMGlpV9MQK-22" value="Program" style="swimlane;fontStyle=1;align=center;verticalAlign=top;childLayout=stackLayout;horizontal=1;startSize=26;horizontalStack=0;resizeParent=1;resizeParentMax=0;resizeLast=0;collapsible=1;marginBottom=0;whiteSpace=wrap;html=1;" vertex="1" parent="1">
          <mxGeometry x="500" y="500" width="160" height="60" as="geometry" />
        </mxCell>
        <mxCell id="O6baOiQE3LoMGlpV9MQK-24" value="" style="line;strokeWidth=1;fillColor=none;align=left;verticalAlign=middle;spacingTop=-1;spacingLeft=3;spacingRight=3;rotatable=0;labelPosition=right;points=[];portConstraint=eastwest;strokeColor=inherit;" vertex="1" parent="O6baOiQE3LoMGlpV9MQK-22">
          <mxGeometry y="26" width="160" height="8" as="geometry" />
        </mxCell>
        <mxCell id="O6baOiQE3LoMGlpV9MQK-25" value="Main(string[] args): void" style="text;strokeColor=none;fillColor=none;align=left;verticalAlign=top;spacingLeft=4;spacingRight=4;overflow=hidden;rotatable=0;points=[[0,0.5],[1,0.5]];portConstraint=eastwest;whiteSpace=wrap;html=1;" vertex="1" parent="O6baOiQE3LoMGlpV9MQK-22">
          <mxGeometry y="34" width="160" height="26" as="geometry" />
        </mxCell>
      </root>
    </mxGraphModel>
  </diagram>
</mxfile>
